#!OML:ASF F:\VICON\USERDATA\INSTALL\rory3\rory3.ASF
:FULLY-SPECIFIED
:DEGREES
902
root -0.46256 18.426 -1.00277 -317.984 -80.3127 317.33
lowerback 5.03546 0.958983 -1.84761
upperback 1.39901 1.01044 -4.48048
thorax -1.33569 0.467016 -3.64349
lowerneck -7.2868 -9.09299 -8.38855
upperneck 9.71402 -12.1289 7.13238
head 5.05681 -5.89269 2.67022
rclavicle -5.1684e-015 -1.27222e-014
rhumerus 22.5538 -66.7542 -37.149
rradius 21.3071
rwrist -7.09001
rhand -30.513 -7.456
rfingers 7.12502
rthumb -3.8129 -37.4016
lclavicle -5.1684e-015 -1.27222e-014
lhumerus -43.3486 34.4805 42.1752
lradius 67.3315
lwrist 76.4442
lhand -29.1451 30.9011
lfingers 7.12502
lthumb -2.49182 60.8663
rfemur -4.52449 21.8004 17.8515
rtibia 20.65
rfoot -18.3914 -17.7986
rtoes -0.121251
lfemur -6.42678 -11.7819 -1.48079
ltibia 26.2902
lfoot -17.1477 16.8774
ltoes -9.29112
903
root -0.465238 18.4365 -1.00085 -319.481 -80.5255 318.821
lowerback 4.85881 1.01395 -2.22231
upperback 1.29697 1.06175 -4.61171
thorax -1.34413 0.490866 -3.5696
lowerneck -7.37593 -9.26205 -8.52967
upperneck 10.0056 -12.3832 7.33441
head 5.2039 -6.00817 2.71898
rclavicle -1.5704e-014 2.54444e-014
rhumerus 27.428 -66.4395 -40.309
rradius 22.4205
rwrist -7.40534
rhand -29.9379 -6.93756
rfingers 7.12502
rthumb -3.25745 -36.8924
lclavicle -1.5704e-014 2.54444e-014
lhumerus -41.8494 34.7029 43.5197
lradius 67.2092
lwrist 74.8328
lhand -29.3469 30.2055
lfingers 7.12502
lthumb -2.68671 60.1683
rfemur -4.2906 21.8989 17.5063
rtibia 20.3715
rfoot -18.2591 -17.8483
rtoes -0.238662
lfemur -6.18208 -12.3719 -1.96619
ltibia 26.0018
lfoot -17.3127 17.3935
ltoes -8.70582
904
root -0.467112 18.4432 -0.99828 -320.487 -80.586 319.812
lowerback 4.65399 1.10116 -2.2911
upperback 1.2595 1.17495 -4.80335
thorax -1.26042 0.54521 -3.73313
lowerneck -7.64199 -9.52109 -8.51385
upperneck 10.4147 -12.7812 7.57167
head 5.42241 -6.18064 2.72953
rclavicle 1.13307e-014 -2.54444e-014
rhumerus 31.9001 -66.1201 -43.2722
rradius 23.6703
rwrist -7.96549
rhand -29.5331 -6.51961
rfingers 7.12502
rthumb -2.86659 -36.4801
lclavicle 1.13307e-014 -2.54444e-014
lhumerus -40.0819 35.0492 44.9882
lradius 66.8509
lwrist 72.4119
lhand -28.1412 29.0785
lfingers 7.12502
lthumb -1.52225 59.0528
rfemur -4.07247 22.0172 17.3711
rtibia 20.151
rfoot -18.1747 -18.0226
rtoes -0.420219
lfemur -5.98446 -12.6539 -2.21212
ltibia 25.6845
lfoot -17.2324 17.6816
ltoes -8.96331
905
root -0.46335 18.4473 -0.996069 -320.917 -80.5712 320.209
lowerback 4.57945 1.24078 -2.21615
upperback 1.1689 1.35643 -4.98866
thorax -1.29704 0.633746 -3.97867
lowerneck -7.62845 -9.83674 -8.38461
upperneck 10.64 -13.2832 7.80541
head 5.539 -6.40823 2.72706
rclavicle 9.74045e-015 -2.22639e-014
rhumerus 35.5338 -65.591 -45.5104
rradius 25.0129
rwrist -8.63927
rhand -29.4643 -5.81863
rfingers 7.12502
rthumb -2.80008 -35.78
lclavicle 9.74045e-015 -2.22639e-014
lhumerus -38.5744 35.3207 46.3917
lradius 66.6313
lwrist 69.4743
lhand -24.9724 28.8732
lfingers 7.12502
lthumb 1.53827 58.8474
rfemur -3.91641 22.1975 17.3644
rtibia 19.9913
rfoot -18.2216 -18.229
rtoes -0.299464
lfemur -5.8286 -12.5358 -2.26383
ltibia 25.3525
lfoot -16.7947 17.7514
ltoes -10.0192
906
root -0.457531 18.4526 -0.993315 -322.038 -80.5725 321.269
lowerback 4.61313 1.33142 -2.39442
upperback 1.0709 1.45746 -5.06155
thorax -1.4143 0.682943 -3.96261
lowerneck -7.59806 -10.1436 -8.53987
upperneck 10.876 -13.7491 8.09374
head 5.67783 -6.6246 2.78616
rclavicle -2.66371e-014 5.725e-014
rhumerus 38.9477 -64.5801 -47.3034
rradius 26.2744
rwrist -9.38946
rhand -29.5656 -4.78893
rfingers 7.12502
rthumb -2.89791 -34.749
lclavicle -2.66371e-014 5.725e-014
lhumerus -37.2601 35.424 47.8378
lradius 66.8129
lwrist 67.5591
lhand -24.0351 29.9669
lfingers 7.12502
lthumb 2.4435 59.9327
rfemur -3.72626 22.3238 17.2383
rtibia 19.8494
rfoot -18.4977 -18.3
rtoes 0.628044
lfemur -5.67698 -12.5184 -2.43688
ltibia 25.0665
lfoot -16.4968 17.7958
ltoes -10.7624
907
root -0.450335 18.4585 -0.988546 -323.268 -80.514 322.455
lowerback 4.62893 1.38955 -2.52694
upperback 0.992934 1.52069 -5.10908
thorax -1.5026 0.713896 -3.94311
lowerneck -7.48116 -10.3886 -8.82197
upperneck 10.891 -14.1196 8.48405
head 5.74386 -6.79758 2.91262
rclavicle 2.22639e-014 3.18055e-015
rhumerus 42.7648 -63.558 -49.4515
rradius 27.3979
rwrist -9.56723
rhand -29.7318 -4.18887
rfingers 7.12502
rthumb -3.05847 -34.1467
lclavicle 2.22639e-014 3.18055e-015
lhumerus -35.5407 35.3466 49.5072
lradius 66.8037
lwrist 66.3243
lhand -26.0269 30.1425
lfingers 7.12502
lthumb 0.519762 60.1216
rfemur -3.55407 22.3793 17.1053
rtibia 19.7341
rfoot -18.9267 -18.2688
rtoes 1.98986
lfemur -5.5622 -12.7401 -2.60645
ltibia 24.8236
lfoot -16.3566 17.933
ltoes -10.8617
908
root -0.440855 18.4627 -0.982902 -324.716 -80.3919 323.823
lowerback 4.69682 1.49056 -2.54096
upperback 0.930685 1.64162 -5.22094
thorax -1.59596 0.772623 -4.06266
lowerneck -7.13995 -10.6792 -8.93206
upperneck 10.6995 -14.563 8.79434
head 5.69795 -7.01418 2.99719
rclavicle 1.66979e-014 6.36111e-015
rhumerus 46.1718 -62.6162 -51.3397
rradius 28.623
rwrist -9.53837
rhand -29.8795 -4.2322
rfingers 7.12502
rthumb -3.20112 -34.1879
lclavicle 1.66979e-014 6.36111e-015
lhumerus -33.3772 35.0749 51.3287
lradius 66.3798
lwrist 64.8702
lhand -27.499 29.6102
lfingers 7.12502
lthumb -0.901989 59.588
rfemur -3.29685 22.3472 17.0178
rtibia 19.5646
rfoot -19.111 -18.3369
rtoes 2.60237
lfemur -5.48281 -12.8455 -2.74271
ltibia 24.6451
lfoot -16.2005 17.8962
ltoes -10.9398
909
root -0.433809 18.463 -0.980445 -325.49 -80.2141 324.462
lowerback 4.80185 1.58572 -2.43717
upperback 0.908672 1.76132 -5.32647
thorax -1.66475 0.830543 -4.24283
lowerneck -6.72661 -10.9547 -8.93743
upperneck 10.2897 -14.9844 9.11267
head 5.56462 -7.22225 3.08026
rclavicle 2.18663e-015 -3.49861e-014
rhumerus 48.6277 -61.4077 -52.4753
rradius 30.1531
rwrist -10.1112
rhand -29.963 -4.30835
rfingers 7.12502
rthumb -3.28169 -34.2628
lclavicle 2.18663e-015 -3.49861e-014
lhumerus -31.3222 34.7671 53.023
lradius 66.0038
lwrist 63.3226
lhand -28.1141 29.3369
lfingers 7.12502
lthumb -1.49612 59.3114
rfemur -2.93728 22.4606 17.1376
rtibia 19.3153
rfoot -19.0976 -18.6775
rtoes 2.33534
lfemur -5.38828 -12.7259 -2.71383
ltibia 24.5548
lfoot -16.0423 17.6533
ltoes -11.1956
910
root -0.426591 18.4612 -0.977237 -325.228 -79.9056 324.016
lowerback 4.9329 1.60109 -2.08933
upperback 0.91128 1.79309 -5.36624
thorax -1.72128 0.845263 -4.48741
lowerneck -6.40195 -11.0906 -8.92092
upperneck 9.80329 -15.2032 9.4457
head 5.40492 -7.32973 3.18378
rclavicle 6.36111e-014 -1.90833e-014
rhumerus 50.1924 -59.7853 -52.7735
rradius 31.825
rwrist -11.3126
rhand -30.2711 -3.84799
rfingers 7.12502
rthumb -3.57929 -33.7977
lclavicle 6.36111e-014 -1.90833e-014
lhumerus -29.5212 34.5551 54.5128
lradius 65.7349
lwrist 61.9065
lhand -28.3099 29.5751
lfingers 7.12502
lthumb -1.6852 59.5482
rfemur -2.53026 22.4118 17.5173
rtibia 19.0288
rfoot -18.8525 -18.9653
rtoes 1.6051
lfemur -5.31148 -12.652 -2.43452
ltibia 24.5549
lfoot -16.0115 17.3542
ltoes -10.9533
911
root -0.412887 18.4606 -0.973873 -325.696 -79.5346 324.386
lowerback 5.01787 1.57013 -1.84408
upperback 0.920702 1.76191 -5.38661
thorax -1.75271 0.829075 -4.64838
lowerneck -6.25952 -11.2715 -9.07104
upperneck 9.6536 -15.4794 9.76904
head 5.39892 -7.46123 3.28426
rclavicle 2.38542e-015 -2.54444e-014
rhumerus 51.5985 -58.1101 -52.7544
rradius 33.4725
rwrist -12.6023
rhand -30.5921 -3.47842
rfingers 7.12502
rthumb -3.88922 -33.4227
lclavicle 2.38542e-015 -2.54444e-014
lhumerus -27.7911 34.3441 56.0628
lradius 65.5706
lwrist 60.6774
lhand -28.6309 30.5928
lfingers 7.12502
lthumb -1.99523 60.5632
rfemur -2.237 22.3025 17.7836
rtibia 18.7629
rfoot -18.5035 -19.3765
rtoes 0.727614
lfemur -5.4391 -12.6476 -2.22843
ltibia 24.5669
lfoot -15.6086 17.308
ltoes -11.9546
912
root -0.398122 18.4621 -0.971686 -326.591 -79.1864 325.28
lowerback 5.05069 1.58081 -1.74815
upperback 0.905535 1.77871 -5.41451
thorax -1.78168 0.836958 -4.73463
lowerneck -5.92001 -11.5445 -9.33204
upperneck 9.40314 -15.8873 10.173
head 5.35881 -7.66551 3.42384
rclavicle -2.88238e-014 6.04305e-014
rhumerus 53.2192 -56.6298 -52.9256
rradius 35.0939
rwrist -13.62
rhand -30.7285 -3.44613
rfingers 7.12502
rthumb -4.02093 -33.3879
lclavicle -2.88238e-014 6.04305e-014
lhumerus -26.1326 33.9353 57.7482
lradius 65.392
lwrist 59.4848
lhand -29.1236 30.408
lfingers 7.12502
lthumb -2.47112 60.3735
rfemur -2.03587 22.316 17.896
rtibia 18.5192
rfoot -18.4599 -19.73
rtoes 0.727224
lfemur -5.69155 -12.5488 -2.1157
ltibia 24.5579
lfoot -14.9052 17.3604
ltoes -14.0687
913
root -0.387933 18.4648 -0.970137 -328.169 -78.9689 326.838
lowerback 5.10845 1.60953 -1.90082
upperback 0.893216 1.8014 -5.46262
thorax -1.82854 0.847583 -4.70251
lowerneck -5.66032 -11.757 -9.31641
upperneck 9.13875 -16.1804 10.2196
head 5.26542 -7.81952 3.4254
rclavicle 3.73715e-014 -9.54166e-014
rhumerus 56.0844 -55.3152 -54.494
rradius 36.3157
rwrist -13.6631
rhand -30.7137 -2.85702
rfingers 7.12502
rthumb -4.00665 -32.7991
lclavicle 3.73715e-014 -9.54166e-014
lhumerus -24.5172 33.3251 59.4155
lradius 64.999
lwrist 58.2655
lhand -29.6387 29.2881
lfingers 7.12502
lthumb -2.96852 59.2472
rfemur -1.79485 22.2634 17.7792
rtibia 18.2969
rfoot -18.6243 -19.8658
rtoes 1.25611
lfemur -5.84304 -12.3792 -2.21146
ltibia 24.5402
lfoot -14.5984 17.0621
ltoes -14.6891
